<?xml version="1.0" standalone="no"?>
<!DOCTYPE svg PUBLIC "-//W3C//DTD SVG 20010904//EN"
 "http://www.w3.org/TR/2001/REC-SVG-20010904/DTD/svg10.dtd">
<svg version="1.0" xmlns="http://www.w3.org/2000/svg"
 width="500.000000pt" height="500.000000pt" viewBox="0 0 500.000000 500.000000"
 preserveAspectRatio="xMidYMid meet">
<metadata>
Created by potrace 1.14, written by Peter Selinger 2001-2017
</metadata>
<g transform="translate(0.000000,500.000000) scale(0.100000,-0.100000)"
fill="#000000" stroke="none">
<path d="M0 2500 l0 -2500 2500 0 2500 0 0 2500 0 2500 -2500 0 -2500 0 0
-2500z m2918 998 c7 -7 12 -20 12 -29 0 -28 -239 -871 -251 -885 -9 -11 -96
-14 -465 -14 -398 0 -454 2 -468 16 -9 8 -16 20 -16 26 0 22 242 874 252 886
15 17 918 18 936 0z m533 -421 c9 -19 -1 -65 -51 -243 -34 -120 -68 -229 -76
-241 -14 -23 -16 -23 -259 -23 l-245 0 -15 23 c-14 22 -11 39 49 251 36 125
70 234 77 242 9 11 57 14 260 14 l249 0 11 -23z m-1256 -667 c17 -19 16 -27
-45 -242 -34 -123 -69 -233 -76 -245 -14 -23 -16 -23 -264 -23 -243 0 -250 1
-261 21 -9 17 1 61 51 242 34 122 68 232 76 245 14 22 16 22 258 22 229 0 244
-1 261 -20z m1059 4 c9 -8 16 -21 16 -27 0 -24 -242 -872 -252 -884 -8 -10
-108 -13 -467 -13 -471 0 -481 1 -481 40 0 26 240 873 252 887 8 10 102 13
464 13 398 0 454 -2 468 -16z"/>
</g>
</svg>
